<svg id="Layer_1" data-name="Layer 1" xmlns="http://www.w3.org/2000/svg" xmlns:xlink="http://www.w3.org/1999/xlink" viewBox="0 0 1173.98 1264.77"><defs><style>.cls-1{fill:none;}.cls-2{clip-path:url(#clip-path);}.cls-3{fill:#4d4732;}.cls-4{fill:#c29824;}</style><clipPath id="clip-path" transform="translate(-73.67 12.36)"><rect class="cls-1" x="253.32" y="174.03" width="785.17" height="891.49"/></clipPath></defs><title>Dnotes</title><g class="cls-2"><path class="cls-3" d="M778.13-12.36H99a9.88,9.88,0,0,0-9.89,9.88V1216.43a9.88,9.88,0,0,0,9.89,9.88h913.21c130,0,235.4-105.39,235.4-235.39V457.15C1247.65,197.85,1037.44-12.36,778.13-12.36ZM988.23,947a41.77,41.77,0,0,1-41.77,41.77H355.38A41.77,41.77,0,0,1,313.6,947V296a41.77,41.77,0,0,1,41.78-41.78h348c157.35,0,284.9,127.55,284.9,284.9Z" transform="translate(-73.67 12.36)"/></g><path class="cls-3" d="M678.61,279.1V539.51c.66,16.12,13.55,28.69,28.81,28.07l266.14-13.16-11.7-286.87Z" transform="translate(-73.67 12.36)"/><path class="cls-3" d="M735.88,178.32H245.41a7.14,7.14,0,0,0-7.14,7.14v880.35a7.14,7.14,0,0,0,7.14,7.14H905a170,170,0,0,0,170-170V517.43C1075,330.14,923.17,178.32,735.88,178.32ZM887.63,871.19a30.17,30.17,0,0,1-30.17,30.17H430.55a30.17,30.17,0,0,1-30.17-30.17V401.05a30.17,30.17,0,0,1,30.17-30.17H681.86c113.65,0,205.77,92.13,205.77,205.77Z" transform="translate(-73.67 12.36)"/><path class="cls-4" d="M762.64,13.73H152.57a78.89,78.89,0,0,0-78.9,78.9v1086.2a73.57,73.57,0,0,0,73.57,73.57H996.77c130,0,235.39-105.38,235.39-235.39V483.25C1232.16,223.94,1022,13.73,762.64,13.73ZM890.36,893.55a31.57,31.57,0,0,1-31.57,31.57H412.08a31.56,31.56,0,0,1-31.57-31.57V401.61A31.57,31.57,0,0,1,412.08,370h263c118.91,0,215.31,96.4,215.31,215.31Z" transform="translate(-73.67 12.36)"/><path class="cls-4" d="M694.09,262.32l20.45,245.56c.66,16.13,13.55,28.69,28.8,28.07L989,537.64l-11.7-286.88Z" transform="translate(-73.67 12.36)"/></svg>